<svg xmlns="http://www.w3.org/2000/svg" xmlns:xlink="http://www.w3.org/1999/xlink" viewBox="0 0 123.47 105.08"><defs><style>.cls-1,.cls-2,.cls-3,.cls-4,.cls-5,.cls-6,.cls-7,.cls-8,.cls-9{fill:none;stroke-miterlimit:10;stroke-width:3px;}.cls-1{stroke:url(#Gold);}.cls-2{stroke:url(#Gold-2);}.cls-3{stroke:url(#Gold-3);}.cls-4{stroke:url(#Gold-4);}.cls-5{stroke:url(#Gold-5);}.cls-6{stroke:url(#Gold-6);}.cls-7{stroke:url(#Gold-7);}.cls-8{stroke:url(#Gold-8);}.cls-9{stroke:url(#Gold-9);}</style><linearGradient id="Gold" y1="32.16" x2="64.8" y2="32.16" gradientUnits="userSpaceOnUse"><stop offset="0.01" stop-color="#fbc926"/><stop offset="0.25" stop-color="#fffbcc"/><stop offset="0.3" stop-color="#f8f0bb"/><stop offset="0.41" stop-color="#e7d28e"/><stop offset="0.55" stop-color="#cca246"/><stop offset="0.6" stop-color="#c3922e"/><stop offset="0.87" stop-color="#eed688"/><stop offset="1" stop-color="#fffbcc"/></linearGradient><linearGradient id="Gold-2" x1="60.07" y1="37.94" x2="123.47" y2="37.94" xlink:href="#Gold"/><linearGradient id="Gold-3" x1="12.24" y1="73.1" x2="112.66" y2="73.1" xlink:href="#Gold"/><linearGradient id="Gold-4" x1="63.88" y1="52.04" x2="93.36" y2="52.04" xlink:href="#Gold"/><linearGradient id="Gold-5" x1="61.04" y1="67.81" x2="90.52" y2="67.81" xlink:href="#Gold"/><linearGradient id="Gold-6" x1="21.91" y1="47.72" x2="51.29" y2="47.72" xlink:href="#Gold"/><linearGradient id="Gold-7" x1="23.4" y1="62.71" x2="52.77" y2="62.71" xlink:href="#Gold"/><linearGradient id="Gold-8" x1="25.25" y1="77.43" x2="54.12" y2="77.43" xlink:href="#Gold"/><linearGradient id="Gold-9" x1="60.02" y1="81.61" x2="87.69" y2="81.61" xlink:href="#Gold"/></defs><title>abs_icon</title><g id="Layer_2" data-name="Layer 2"><g id="Layer_1-2" data-name="Layer 1"><path class="cls-1" d="M1.37,63.72a61.18,61.18,0,0,1,4.32-8c1.65-2.59,2.14-2.94,2.91-4.57,1.76-3.76,1.54-6,1.73-10.07.12-2.69,2.78-5.19,4.13-10.81s-3.7-16.18-3.7-16.18c1.09,2.4,2.18,4.43,3.12,6.07a69.93,69.93,0,0,0,6,8.87,51.13,51.13,0,0,0,4.45,5,19.61,19.61,0,0,0,3.58,3,14,14,0,0,0,5.56,1.85,35.48,35.48,0,0,0,8.4-.24,70.19,70.19,0,0,0,11.16-2.68c.1,0,1.19-.38,2.59-1A10.83,10.83,0,0,0,58,33.62a6.71,6.71,0,0,0,1.73-2.1,21.51,21.51,0,0,0,2.2-7.18,52.82,52.82,0,0,0,1.34-14.11A51.75,51.75,0,0,0,61.9.34"/><path class="cls-2" d="M61.33,28.18a30.67,30.67,0,0,0,3.41,4.28,30.83,30.83,0,0,0,4.86,4.12,31.22,31.22,0,0,0,17.88,4.53,28.78,28.78,0,0,0,7.28-1.48A33.83,33.83,0,0,0,104.89,34c9-7.39,13.8-19.58,13.84-19.65a58.22,58.22,0,0,0-4.57,14,61.27,61.27,0,0,0-.74,15.32,21.59,21.59,0,0,0,2.84,8.9,53.26,53.26,0,0,0,5.84,8.63l.21.26"/><path class="cls-3" d="M111.19,42.59s-1.35,6.61-3.83,10.26S104,57.66,104,57.66s1.23,2-.12,6.18L102.55,68a12.2,12.2,0,0,0-.13,4.39c.34,2.17,1.11,3.07,1.69,5a16.32,16.32,0,0,1,.33,6.75c-.24,2.66-1,4.86-2.39,9.27L100.2,98.8h0c-12.71,2.84-22.43,4.18-26.4,4.41-3.45.2-6.58.16-6.59.16-2.12,0-3.42-.11-4.61-.16-4.5-.2-6,.19-10.87.33a113.94,113.94,0,0,1-12-.33c-3-.23-4.62-.46-9.72-.82-2.15-.16-3.92-.27-5.11-.33a8.1,8.1,0,0,1-5.1-2,8.27,8.27,0,0,1-2.64-5.89A51.44,51.44,0,0,1,16,88.88c-.72-4.39-1.48-9-.17-13.84s2.95-3.94,3.71-8.23L19,56.06h0l-1.73-3.21a35.38,35.38,0,0,1-3.59-11.49"/><path class="cls-4" d="M64.62,50.38a20.93,20.93,0,0,0,4.94,2c5.06,1.43,7.65,2.16,10.87,2a21.17,21.17,0,0,0,12-4.94"/><path class="cls-5" d="M61.78,66.15a20.93,20.93,0,0,0,4.94,2c5.06,1.43,7.65,2.16,10.87,2a21.17,21.17,0,0,0,12-4.94"/><path class="cls-6" d="M23.24,42.92a17.12,17.12,0,0,0,10.13,8.32c2.52.71,13.76.58,17.7,0"/><path class="cls-7" d="M24.72,57.91a17.12,17.12,0,0,0,10.13,8.32c2.52.71,13.76.58,17.71,0"/><path class="cls-8" d="M53.56,81a10.41,10.41,0,0,1-1.6.5,14.56,14.56,0,0,1-2.72.4A45.61,45.61,0,0,1,41,81.14l-4.58-1.45-7-4.58-3.33-2.47"/><path class="cls-9" d="M86.55,78.76a10.73,10.73,0,0,1-3.65,3.18,25,25,0,0,1-3.64,1.2c-.46.13-1,.27-1.64.41a17.8,17.8,0,0,1-1.88.3,18.06,18.06,0,0,1-2.94,0,24.73,24.73,0,0,1-2.53-.22,25.77,25.77,0,0,1-3.4-.73c-1.06-.29-1.83-.56-2.5-.78-1.24-.43-1.88-.71-2.1-.81a8.37,8.37,0,0,1-1.39-.68"/></g></g></svg>