<svg xmlns="http://www.w3.org/2000/svg" xmlns:xlink="http://www.w3.org/1999/xlink" viewBox="0 0 115.1 106.51"><defs><style>.cls-1{fill:none;stroke-miterlimit:10;stroke-width:3px;stroke:url(#Gold);}</style><linearGradient id="Gold" y1="53.26" x2="115.1" y2="53.26" gradientUnits="userSpaceOnUse"><stop offset="0.01" stop-color="#fbc926"/><stop offset="0.25" stop-color="#fffbcc"/><stop offset="0.3" stop-color="#f8f0bb"/><stop offset="0.41" stop-color="#e7d28e"/><stop offset="0.55" stop-color="#cca246"/><stop offset="0.6" stop-color="#c3922e"/><stop offset="0.87" stop-color="#eed688"/><stop offset="1" stop-color="#fffbcc"/></linearGradient></defs><title>arms_icon</title><g id="Layer_2" data-name="Layer 2"><g id="Layer_1-2" data-name="Layer 1"><path class="cls-1" d="M2.38,13s-1.84,2.61-.2,8.7l1.65,6.09s1.93,8.61,3.32,10.41a70.12,70.12,0,0,1,5.54,8.64c.74,1.74,1.55,4.19,1.55,4.19s.8,8.67,2,10.89l5.28,9.87,15.21,26s6.48,6.32,9.74,6.83,3.8.26,3.8.26a12.86,12.86,0,0,0,3.42-2.26c.87-1.06,1.93-.77,7.86-3.87a105.58,105.58,0,0,0,12.18-7.09C75.57,90.35,89,76.23,89.91,74.65l.54-1,7.71-15.48s4.24-5.94,4.92-6.83a31.22,31.22,0,0,1,2.71-2.76s3.19-6.4,3.77-7.59,1.54-3.77,1.54-3.77a12.48,12.48,0,0,0,1.45-2.08c.32-.72.39-2.66.54-2.95s.82-2.65.33-3.38-1.83-1.69-2.32-2.37-1.79-2.22-1.79-2.22a39.52,39.52,0,0,0-2.7-4.21c-.82-.89-1.65-1.84-1.65-1.84l-1.06-2.32s-1.16-1.08-2-.87-1.79.58-1.79.58a25.19,25.19,0,0,0-3.29,3c-.43.75-1.88-1.11-1.88-1.11a3.15,3.15,0,0,0-2.42-.1A7.45,7.45,0,0,0,90.7,19a14.16,14.16,0,0,0-.5,3.72,6,6,0,0,1-.06,2.06,3.88,3.88,0,0,1-.94,1.9,3.68,3.68,0,0,0-1.12,1.61c0,.18-2.16,1.23-2.68,2.81s-2.48,6.19-2.32,7.54a24.64,24.64,0,0,0,1.22,4.71,9.4,9.4,0,0,1-.38,4.38c-.52.9-7.48,10.54-9.09,12l-1.61,1.52-3.61,2s-5.55.68-7.8,1.16-7.16,1.49-7.16,1.49a80.65,80.65,0,0,0,1-9.54,35.68,35.68,0,0,0-1.16-8.9c-.77-2.42-.51-3-3.73-6.44s-4.71-5.23-4.71-5.23,1.55-3.12,3.22-7.47c0,0,1.61-8.27-1.77-15.18S40.52,1.91,39,1.43"/></g></g></svg>