<svg xmlns="http://www.w3.org/2000/svg" xmlns:xlink="http://www.w3.org/1999/xlink" viewBox="0 0 123.24 74.92"><defs><style>.cls-1,.cls-2,.cls-3{fill:none;stroke-miterlimit:10;stroke-width:3px;}.cls-1{stroke:url(#Gold);}.cls-2{stroke:url(#Gold-2);}.cls-3{stroke:url(#Gold-3);}</style><linearGradient id="Gold" x1="13.13" y1="15.98" x2="54.83" y2="15.98" gradientUnits="userSpaceOnUse"><stop offset="0.01" stop-color="#fbc926"/><stop offset="0.25" stop-color="#fffbcc"/><stop offset="0.3" stop-color="#f8f0bb"/><stop offset="0.41" stop-color="#e7d28e"/><stop offset="0.55" stop-color="#cca246"/><stop offset="0.6" stop-color="#c3922e"/><stop offset="0.87" stop-color="#eed688"/><stop offset="1" stop-color="#fffbcc"/></linearGradient><linearGradient id="Gold-2" x1="0" y1="37.46" x2="123.24" y2="37.46" xlink:href="#Gold"/><linearGradient id="Gold-3" x1="66.74" y1="11.53" x2="109.19" y2="11.53" xlink:href="#Gold"/></defs><title>back_icon</title><g id="Layer_2" data-name="Layer 2"><g id="Layer_1-2" data-name="Layer 1"><path class="cls-1" d="M53.32,14.91a2.62,2.62,0,0,1-1.13,2.27,24,24,0,0,1-4.87,2.11S44,16.85,42,16.53a26.48,26.48,0,0,0-7.14-.16c-1.78.32-5.25,1.36-6.44,2.51A15.09,15.09,0,0,0,27,20.3a22.53,22.53,0,0,0-4.3-.57c-1.4.08-2-.06-3,.41a21.83,21.83,0,0,0-2.31,1.34l-1.1-3.41s-1.44-2.74-1.66-3,.41-5.35.69-6.53"/><path class="cls-2" d="M7.36,6.92s-2.58,4.87-2.67,5.72-2.07,4.1-2.13,4.62A29.62,29.62,0,0,0,2,22.06c0,2-.06,4-.06,4s-.61,3.68-.3,4.86-.46.95.91,2.13S4,35.6,6.69,36.3s4.75,1.43,6.88,1.15,2.55-.36,2.55-.36a10.69,10.69,0,0,0,4.5.91c2.92.06,4.62.3,6-.18s4.62-1.77,4.62-1.77,1.8-1.15,2.56-.91,1.15,2,1.15,2a20.82,20.82,0,0,0,1.22,4.68c.82,1.79,3.95,9.06,3.95,9.06s1.83,5,2.13,6,0,1.43.49,4.38.91,6.75.91,6.75l.79,5s13.5-3.2,19.87-3.61,14.15.2,15.73,1.14l1.58.93s-.49-7.87-.53-10.26,3.33-10.62,3.33-10.62L88,41.51s1.66-3.53,1.46-5.6S91,34.53,91,34.53s4,2.64,7.38,2.68,8.51-.25,8.51-.25a18.47,18.47,0,0,0,6.73-.81s5.43-2,6.49-3.4a12.58,12.58,0,0,0,1.62-3.25,17.8,17.8,0,0,0-.65-2c-.24-.49,0-7.71-.65-9.25s-3.24-6-3.24-6L113,3.64,112,.47"/><path class="cls-3" d="M104.12,1a64,64,0,0,1,2.4,6.53s.83,4,1.13,4.86-1.15,3.41-1.3,4.87a13.61,13.61,0,0,0-.32,2.88l.2.73a8.85,8.85,0,0,0-1.3-.08c-.34,0-2-1.28-3.12-1.42a14.14,14.14,0,0,0-3-.24,29.27,29.27,0,0,0-3,.44s-3.2-2.65-5.15-3.16a20.38,20.38,0,0,0-5.67-.89,53.6,53.6,0,0,0-6.73,1.13l-2.76,1.62a34.76,34.76,0,0,0-3.85-.89,5.54,5.54,0,0,1-3.21-1.54,2.81,2.81,0,0,1-.28-1.3"/></g></g></svg>