<svg xmlns="http://www.w3.org/2000/svg" xmlns:xlink="http://www.w3.org/1999/xlink" viewBox="0 0 123.77 84.34"><defs><style>.cls-1,.cls-2,.cls-3,.cls-4{fill:none;stroke-miterlimit:10;stroke-width:3px;}.cls-1{stroke:url(#Gold);}.cls-2{stroke:url(#Gold-2);}.cls-3{stroke:url(#Gold-3);}.cls-4{stroke:url(#Gold-4);}</style><linearGradient id="Gold" y1="42.91" x2="47" y2="42.91" gradientUnits="userSpaceOnUse"><stop offset="0.01" stop-color="#fbc926"/><stop offset="0.25" stop-color="#fffbcc"/><stop offset="0.3" stop-color="#f8f0bb"/><stop offset="0.41" stop-color="#e7d28e"/><stop offset="0.55" stop-color="#cca246"/><stop offset="0.6" stop-color="#c3922e"/><stop offset="0.87" stop-color="#eed688"/><stop offset="1" stop-color="#fffbcc"/></linearGradient><linearGradient id="Gold-2" x1="15.89" y1="60.89" x2="63.66" y2="60.89" xlink:href="#Gold"/><linearGradient id="Gold-3" x1="59.28" y1="65.07" x2="106.1" y2="65.07" xlink:href="#Gold"/><linearGradient id="Gold-4" x1="76.44" y1="41.72" x2="123.77" y2="41.72" xlink:href="#Gold"/></defs><title>chest_icon</title><g id="Layer_2" data-name="Layer 2"><g id="Layer_1-2" data-name="Layer 1"><path class="cls-1" d="M46.49,3.69s-13.61,4.9-17.2,8.36c0,0-4.41,2.14-4.41,3.35s-6.81,2.91-9,4.47A18,18,0,0,0,11,24.62c-1.43,2.11-2.41,3.09-2.86,5.46s-.72,6.81-.72,6.81a31.52,31.52,0,0,0-.72,5.46,30.46,30.46,0,0,0,.72,7.86A14.31,14.31,0,0,0,2.22,60.42a16.69,16.69,0,0,0-.72,4.83A16,16,0,0,0,2,69.37c.56,2.24,1.14,6.28,1.25,14.15"/><path class="cls-2" d="M17.26,83.73a46.22,46.22,0,0,1,3.14-5.82,30,30,0,0,0,2.1-3.31,16.44,16.44,0,0,0,.83-2.29c.79-2.44,1.4-3.68,1.87-4.91a25.91,25.91,0,0,0,1.56-7.94,29,29,0,0,0-2.69-11.73c.79,1.74,1.58,3.21,2.26,4.4a50.77,50.77,0,0,0,4.37,6.44,27.1,27.1,0,0,0,3.22,3.58,17.75,17.75,0,0,0,5.38,3.58,15.61,15.61,0,0,0,7.76,1,19.2,19.2,0,0,0,7.76-2.39A16,16,0,0,0,58,61.88a14,14,0,0,0,2.29-3.07c.25-.9.56-2.13.85-3.62a42.21,42.21,0,0,0,1-10.24,36.52,36.52,0,0,0-1-7.16"/><path class="cls-3" d="M60.55,57.73a18.09,18.09,0,0,0,2.66,3.34,18.63,18.63,0,0,0,3.55,2.75,21.9,21.9,0,0,0,12.93,3.52A18.91,18.91,0,0,0,85,66.27a24.71,24.71,0,0,0,7.35-4.12c6.51-5.36,10-14.2,10-14.24A42.17,42.17,0,0,0,99,58a44,44,0,0,0-.54,11.1,15.63,15.63,0,0,0,.33,2.09,17.08,17.08,0,0,0,1.73,4.36,38.59,38.59,0,0,0,4.23,6.27L105,82"/><path class="cls-4" d="M118.65,82.81a36.08,36.08,0,0,0,2.87-22.72,33.11,33.11,0,0,0-3-8.33A14.12,14.12,0,0,1,117,46.92c-.36-3.51.88-5.25,1.31-8.42a18.81,18.81,0,0,0-1.85-10.39,21.08,21.08,0,0,0-8.69-9.31c-3.47-2.58-7.35-5.24-11.64-7.88A97.54,97.54,0,0,0,84.08,4.2C81.17,2.9,78.67,2,76.91,1.42"/></g></g></svg>