<svg xmlns="http://www.w3.org/2000/svg" xmlns:xlink="http://www.w3.org/1999/xlink" viewBox="0 0 25.4 28.25"><defs><style>.cls-1,.cls-2,.cls-3{fill:none;stroke-miterlimit:10;stroke-width:3px;}.cls-1{stroke:url(#Gold);}.cls-2{stroke:url(#Gold-2);}.cls-3{stroke:url(#Gold-3);}</style><linearGradient id="Gold" x1="-3537.94" y1="3974.86" x2="-3531.34" y2="3974.86" gradientTransform="translate(-3952.76 -3509.69) rotate(-90)" gradientUnits="userSpaceOnUse"><stop offset="0.01" stop-color="#fbc926"/><stop offset="0.25" stop-color="#fffbcc"/><stop offset="0.3" stop-color="#f8f0bb"/><stop offset="0.41" stop-color="#e7d28e"/><stop offset="0.55" stop-color="#cca246"/><stop offset="0.6" stop-color="#c3922e"/><stop offset="0.87" stop-color="#eed688"/><stop offset="1" stop-color="#fffbcc"/></linearGradient><linearGradient id="Gold-2" x1="-3535.04" y1="3963.41" x2="-3512.59" y2="3963.41" xlink:href="#Gold"/><linearGradient id="Gold-3" x1="-3516.29" y1="3974.86" x2="-3509.69" y2="3974.86" xlink:href="#Gold"/></defs><title>share_icon</title><g id="Layer_2" data-name="Layer 2"><g id="Layer_1-2" data-name="Layer 1"><path class="cls-1" d="M21.2,26.51a1.8,1.8,0,1,0-.66-2.46A1.79,1.79,0,0,0,21.2,26.51Z"/><path class="cls-2" d="M4.2,12.54a1.82,1.82,0,1,0,0,3.17,1.7,1.7,0,0,0,.68-.7l1.4.81,14.26,8.23L4.88,15a1.91,1.91,0,0,0,.22-.84v-.08a1.92,1.92,0,0,0-.22-.85l1.4-.8L20.54,4.2l-15.66,9A1.76,1.76,0,0,0,4.2,12.54Z"/><path class="cls-3" d="M21.2,1.74a1.8,1.8,0,1,0,2.46.66A1.8,1.8,0,0,0,21.2,1.74Z"/></g></g></svg>