<svg xmlns="http://www.w3.org/2000/svg" xmlns:xlink="http://www.w3.org/1999/xlink" viewBox="0 0 98.43 124.16"><defs><style>.cls-1{fill:none;stroke-miterlimit:10;stroke-width:3px;stroke:url(#Gold);}</style><linearGradient id="Gold" y1="62.08" x2="98.43" y2="62.08" gradientUnits="userSpaceOnUse"><stop offset="0.01" stop-color="#fbc926"/><stop offset="0.25" stop-color="#fffbcc"/><stop offset="0.3" stop-color="#f8f0bb"/><stop offset="0.41" stop-color="#e7d28e"/><stop offset="0.55" stop-color="#cca246"/><stop offset="0.6" stop-color="#c3922e"/><stop offset="0.87" stop-color="#eed688"/><stop offset="1" stop-color="#fffbcc"/></linearGradient></defs><title>shoulders_icon</title><g id="Layer_2" data-name="Layer 2"><g id="Layer_1-2" data-name="Layer 1"><path class="cls-1" d="M.73,9.26s5.35-3,8.09-2.87,9.39,1,9.39,1A17.47,17.47,0,0,0,24,8C26.17,7.56,35.26,5,36.61,5s8-2.53,9.91-3a39.12,39.12,0,0,1,9.66-.35c2.22.35,7,1.65,7,1.65s11.09-.65,14.35.18A40.94,40.94,0,0,1,87,6.62s6.21,2.74,7.3,4.78,1.87,2.44,2.35,5.39c0,0,.56,8.22.17,10.61s-1,4.48-.69,5.57a53.32,53.32,0,0,1,.61,9.13C96.58,44.54,95.05,54,95.05,54L92.62,64.28a58,58,0,0,1-1.31,7.83l-1.74,6.26s-.56,5.61-.52,8-1.52,7.13-.87,7.91,4.09,7.92,4.09,7.92a3.65,3.65,0,0,1,.61,2.43c-.17,1.39-.17,6.53-.17,6.53a42.27,42.27,0,0,1-2.35,4.34l-2.7,3.83s-2.69-.09-3-.61-1.56,1.39-2.69,1.74a11.29,11.29,0,0,1-3.39.09s-1.74,2.22-3.66,1.39a3.87,3.87,0,0,0-3.65.52s-2.09.74-3.22-.61-1-7.82-1-7.82-.7-5.66-1.66-7.83-4.87-2.52-4.87-2.52-4.39-2.13-1.3-2.61a9.3,9.3,0,0,1,3-1c1.09,0,3.74-3.3,3.74-3.3l2.61-1.39s.83-.52,2.44-6.87c0,0,2.26-5.74,2.08-8.87s-.52-10.53-.52-10.53.12-8.49-.49-11.42-2.67-6-3.77-10a25.1,25.1,0,0,1-.64-8.81c.12-.26-2.08.78-3.71,2.14,0,0-3.33,2-5,2.73a18.41,18.41,0,0,0-3.66,2.43A14.84,14.84,0,0,1,50,48.36c-3,.5-9.74,1.45-14.44,1.16"/></g></g></svg>