<svg xmlns="http://www.w3.org/2000/svg" xmlns:xlink="http://www.w3.org/1999/xlink" viewBox="0 0 29.73 27.38"><defs><style>.cls-1{fill:none;stroke-miterlimit:10;stroke-width:3px;stroke:url(#Gold);}</style><linearGradient id="Gold" x1="-5863.67" y1="-1356.93" x2="-5833.44" y2="-1356.93" gradientTransform="translate(-4613.49 3839.52) rotate(127.4)" gradientUnits="userSpaceOnUse"><stop offset="0.01" stop-color="#fbc926"/><stop offset="0.25" stop-color="#fffbcc"/><stop offset="0.3" stop-color="#f8f0bb"/><stop offset="0.41" stop-color="#e7d28e"/><stop offset="0.55" stop-color="#cca246"/><stop offset="0.6" stop-color="#c3922e"/><stop offset="0.87" stop-color="#eed688"/><stop offset="1" stop-color="#fffbcc"/></linearGradient></defs><title>volume_icon</title><g id="Layer_2" data-name="Layer 2"><g id="Layer_1-2" data-name="Layer 1"><path class="cls-1" d="M7.44,25.15l4.41-1.42,10.49,1.89a5.13,5.13,0,0,0,1.4.26,4.62,4.62,0,0,0,1.62-.34c1.47-.61,5-8.95,1.09-16.2C22.84,2.66,15.07.93,13.83,1.65a5,5,0,0,0-1.55,1.48,5.59,5.59,0,0,0-.3.6L6.13,15.34,2.39,17.83a4.72,4.72,0,0,0,5.05,7.32Z"/></g></g></svg>